<?xml version="1.0" encoding="utf-8"?>
<!-- Generator: Adobe Illustrator 17.0.0, SVG Export Plug-In . SVG Version: 6.00 Build 0)  -->
<!DOCTYPE svg PUBLIC "-//W3C//DTD SVG 1.1//EN" "http://www.w3.org/Graphics/SVG/1.1/DTD/svg11.dtd">
<svg version="1.1" id="Camada_1" xmlns="http://www.w3.org/2000/svg" xmlns:xlink="http://www.w3.org/1999/xlink" x="0px" y="0px"
	 width="359.982px" height="122.994px" viewBox="0 0 359.982 122.994" enable-background="new 0 0 359.982 122.994"
	 xml:space="preserve">
<g>
	<circle fill="#34495E" cx="80.042" cy="29.086" r="3.492"/>
	<circle fill="#34495E" cx="89.519" cy="29.086" r="3.492"/>
	<circle fill="#34495E" cx="98.469" cy="29.086" r="3.492"/>
</g>
<g>
	<path fill="none" stroke="#2C3E50" stroke-width="6" stroke-miterlimit="10" d="M102.902,75.407c0,4.971-4.029,9-9,9h-65
		c-4.971,0-9-4.029-9-9v-15c0-4.971,4.029-9,9-9h65c4.971,0,9,4.029,9,9V75.407z"/>
</g>
<g>
	<path fill="#009045" d="M103.426,39.907c0,1.484-1.8,2.5-4,2.5H24.149c-2.2,0-4-1.016-4-2.5s1.8-2.5,4-2.5h75.277
		C101.626,37.407,103.426,38.423,103.426,39.907z"/>
</g>
<g>
	<path fill="#009045" d="M82.221,95.907c0,1.484-1.8,2.5-4,2.5H24.149c-2.2,0-4-1.016-4-2.5s1.8-2.5,4-2.5h54.072
		C80.421,93.407,82.221,94.423,82.221,95.907z"/>
</g>
<path fill="#009045" d="M97.558,87.899c1.342,0,2.683,0,4.025,0c0.418,0.199,0.595,0.536,0.633,0.992
	c0.056,0.667,0.156,1.331,0.23,1.997c0.016,0.143,0.063,0.22,0.213,0.263c0.826,0.235,1.614,0.563,2.369,0.975
	c0.061,0.033,0.187,0.017,0.245-0.027c0.609-0.465,1.211-0.94,1.814-1.414c0.324-0.255,0.815-0.246,1.085,0.024
	c0.846,0.847,1.692,1.693,2.537,2.542c0.327,0.328,0.343,0.783,0.054,1.148c-0.47,0.596-0.934,1.197-1.407,1.791
	c-0.074,0.093-0.076,0.157-0.02,0.255c0.427,0.747,0.744,1.54,0.985,2.364c0.044,0.149,0.118,0.197,0.261,0.213
	c0.666,0.074,1.33,0.174,1.997,0.231c0.455,0.039,0.794,0.213,0.991,0.633c0,1.342,0,2.683,0,4.025
	c-0.193,0.41-0.52,0.592-0.97,0.631c-0.675,0.058-1.346,0.159-2.019,0.233c-0.144,0.016-0.217,0.065-0.26,0.213
	c-0.242,0.823-0.563,1.615-0.98,2.367c-0.034,0.06-0.018,0.188,0.026,0.246c0.46,0.604,0.93,1.2,1.4,1.797
	c0.288,0.366,0.268,0.82-0.057,1.148c-0.785,0.792-1.569,1.584-2.354,2.376c-0.471,0.475-0.858,0.501-1.388,0.09
	c-0.565-0.438-1.124-0.883-1.693-1.315c-0.057-0.043-0.184-0.057-0.245-0.023c-0.742,0.404-1.514,0.733-2.327,0.959
	c-0.187,0.052-0.243,0.146-0.262,0.322c-0.07,0.659-0.169,1.315-0.225,1.975c-0.038,0.45-0.222,0.776-0.631,0.969
	c-1.342,0-2.683,0-4.025,0c-0.419-0.198-0.595-0.536-0.633-0.992c-0.056-0.667-0.155-1.331-0.229-1.997
	c-0.016-0.144-0.066-0.217-0.214-0.259c-0.825-0.238-1.618-0.558-2.364-0.984c-0.101-0.058-0.164-0.048-0.254,0.024
	c-0.594,0.473-1.194,0.938-1.79,1.408c-0.366,0.288-0.819,0.277-1.151-0.052c-0.827-0.823-1.648-1.653-2.47-2.482
	c-0.349-0.352-0.366-0.793-0.059-1.181c0.466-0.59,0.929-1.182,1.384-1.78c0.043-0.057,0.057-0.184,0.023-0.245
	c-0.409-0.748-0.737-1.528-0.968-2.348c-0.043-0.154-0.115-0.215-0.272-0.232c-0.666-0.072-1.33-0.173-1.997-0.229
	c-0.457-0.038-0.793-0.216-0.991-0.635c0-1.342,0-2.683,0-4.025c0.181-0.324,0.407-0.565,0.816-0.604
	c0.726-0.069,1.449-0.174,2.174-0.256c0.145-0.016,0.218-0.064,0.26-0.213c0.235-0.826,0.562-1.615,0.974-2.37
	c0.034-0.062,0.022-0.188-0.021-0.245c-0.465-0.61-0.94-1.211-1.414-1.814c-0.257-0.327-0.252-0.812,0.02-1.085
	c0.84-0.842,1.681-1.683,2.525-2.522c0.354-0.352,0.795-0.365,1.18-0.06c0.589,0.467,1.181,0.93,1.779,1.385
	c0.057,0.043,0.184,0.057,0.245,0.023c0.754-0.413,1.544-0.737,2.368-0.977c0.149-0.043,0.197-0.118,0.213-0.261
	c0.075-0.673,0.174-1.345,0.233-2.019C96.966,88.419,97.149,88.093,97.558,87.899z M92.576,101.895
	c-0.008,3.853,3.112,6.991,6.988,6.997c3.791,0.006,6.99-2.994,7.005-6.981c0.015-3.885-3.094-6.991-6.977-7.007
	C95.717,94.887,92.584,98.017,92.576,101.895z"/>
<g>
	<path fill="none" stroke="#34495E" stroke-width="7" stroke-miterlimit="10" d="M83.902,109.907H31.968
		c-12.65,0-22.566-10.649-22.566-23.299V40.099c0-12.65,9.916-23.192,22.566-23.192h58.867c12.65,0,22.566,10.542,22.566,23.192
		v49.308"/>
</g>
<g>
	<path fill="#009045" d="M143.905,56.206c3.074,1.575,7.799,3.15,12.674,3.15c5.25,0,8.025-2.176,8.025-5.476
		c0-3.149-2.4-4.949-8.476-7.124c-8.399-2.925-13.874-7.575-13.874-14.925c0-8.625,7.2-15.225,19.124-15.225
		c5.7,0,9.899,1.2,12.899,2.55l-2.55,9.225c-2.024-0.975-5.625-2.399-10.574-2.399c-4.95,0-7.35,2.25-7.35,4.875
		c0,3.225,2.85,4.65,9.374,7.125c8.925,3.3,13.125,7.95,13.125,15.075c0,8.475-6.524,15.674-20.399,15.674
		c-5.774,0-11.475-1.5-14.324-3.074L143.905,56.206z"/>
	<path fill="#009045" d="M195.504,17.433v50.548h-11.475V17.433H195.504z"/>
	<path fill="#009045" d="M247.627,65.656c-3.524,1.199-10.199,2.85-16.874,2.85c-9.225,0-15.899-2.325-20.549-6.825
		c-4.65-4.35-7.2-10.949-7.125-18.374c0.075-16.799,12.3-26.399,28.874-26.399c6.524,0,11.549,1.275,14.024,2.475l-2.4,9.15
		c-2.774-1.2-6.225-2.175-11.774-2.175c-9.524,0-16.725,5.4-16.725,16.35c0,10.424,6.525,16.575,15.899,16.575
		c2.625,0,4.726-0.3,5.625-0.75V47.956h-7.8v-8.924h18.824V65.656z"/>
	<path fill="#009045" d="M286.627,46.607h-18.599v12h20.773v9.374h-32.248V17.433h31.198v9.375h-19.724v10.5h18.599V46.607z"/>
	<path fill="#009045" d="M309.051,67.981l-16.199-50.548h12.524l6.15,21.374c1.725,6,3.3,11.774,4.499,18.074h0.226
		c1.274-6.074,2.85-12.074,4.574-17.849l6.45-21.599h12.149L322.4,67.981H309.051z"/>
</g>
<g>
	<path fill="#009045" d="M126.526,87.427c0.785,0.402,1.992,0.805,3.236,0.805c1.341,0,2.049-0.556,2.049-1.398
		c0-0.804-0.612-1.264-2.163-1.818c-2.146-0.747-3.543-1.935-3.543-3.812c0-2.202,1.838-3.887,4.883-3.887
		c1.456,0,2.528,0.306,3.294,0.65l-0.651,2.355c-0.517-0.249-1.436-0.612-2.7-0.612c-1.264,0-1.876,0.574-1.876,1.244
		c0,0.824,0.728,1.188,2.394,1.819c2.278,0.843,3.352,2.03,3.352,3.85c0,2.164-1.666,4.002-5.209,4.002
		c-1.475,0-2.93-0.383-3.658-0.785L126.526,87.427z"/>
	<path fill="#009045" d="M139.679,78.465c0,0.805-0.613,1.455-1.57,1.455c-0.919,0-1.532-0.65-1.513-1.455
		c-0.02-0.843,0.594-1.475,1.531-1.475C139.066,76.99,139.66,77.622,139.679,78.465z M136.673,90.434v-9.364h2.911v9.364H136.673z"
		/>
	<path fill="#009045" d="M141.899,87.887c0.536,0.325,1.646,0.708,2.508,0.708c0.881,0,1.245-0.306,1.245-0.784
		c0-0.479-0.287-0.709-1.379-1.073c-1.934-0.65-2.681-1.704-2.662-2.814c0-1.743,1.494-3.064,3.812-3.064
		c1.091,0,2.068,0.249,2.643,0.536l-0.518,2.011c-0.421-0.229-1.226-0.536-2.029-0.536c-0.709,0-1.111,0.287-1.111,0.767
		c0,0.44,0.364,0.67,1.514,1.072c1.78,0.612,2.527,1.513,2.547,2.892c0,1.742-1.379,3.025-4.061,3.025
		c-1.226,0-2.316-0.268-3.025-0.651L141.899,87.887z"/>
	<path fill="#009045" d="M153.482,78.389v2.681h2.087v2.145h-2.087v3.39c0,1.13,0.268,1.647,1.148,1.647
		c0.364,0,0.651-0.039,0.862-0.077l0.019,2.202c-0.383,0.153-1.072,0.249-1.896,0.249c-0.938,0-1.724-0.325-2.183-0.804
		c-0.536-0.556-0.805-1.456-0.805-2.777v-3.83h-1.245v-2.145h1.245v-2.03L153.482,78.389z"/>
	<path fill="#009045" d="M159.397,86.681c0.097,1.206,1.283,1.78,2.644,1.78c0.995,0,1.8-0.134,2.585-0.383l0.383,1.973
		c-0.957,0.383-2.126,0.574-3.39,0.574c-3.179,0-4.998-1.838-4.998-4.769c0-2.374,1.475-4.998,4.73-4.998
		c3.025,0,4.174,2.355,4.174,4.673c0,0.498-0.057,0.938-0.096,1.149H159.397z M162.826,84.689c0-0.708-0.307-1.896-1.647-1.896
		c-1.226,0-1.724,1.11-1.8,1.896H162.826z"/>
	<path fill="#009045" d="M167.264,84.057c0-1.168-0.038-2.164-0.076-2.987h2.451l0.134,1.264h0.058
		c0.402-0.594,1.226-1.475,2.834-1.475c1.206,0,2.164,0.613,2.566,1.59h0.038c0.345-0.479,0.766-0.862,1.206-1.13
		c0.518-0.307,1.092-0.46,1.781-0.46c1.8,0,3.16,1.265,3.16,4.061v5.515h-2.835V85.34c0-1.359-0.44-2.145-1.379-2.145
		c-0.67,0-1.148,0.459-1.34,1.015c-0.077,0.211-0.115,0.517-0.115,0.747v5.477h-2.834v-5.247c0-1.188-0.421-1.991-1.341-1.991
		c-0.746,0-1.188,0.574-1.359,1.053c-0.096,0.229-0.115,0.498-0.115,0.728v5.458h-2.834V84.057z"/>
	<path fill="#009045" d="M189.052,90.434l-0.173-0.938h-0.058c-0.612,0.747-1.57,1.149-2.681,1.149
		c-1.896,0-3.025-1.379-3.025-2.873c0-2.432,2.183-3.6,5.496-3.581v-0.134c0-0.498-0.269-1.206-1.705-1.206
		c-0.957,0-1.972,0.325-2.585,0.708l-0.536-1.876c0.651-0.364,1.935-0.824,3.639-0.824c3.121,0,4.117,1.839,4.117,4.041v3.255
		c0,0.9,0.038,1.763,0.134,2.279H189.052z M188.708,86.01c-1.532-0.019-2.72,0.345-2.72,1.475c0,0.747,0.498,1.11,1.149,1.11
		c0.728,0,1.321-0.479,1.513-1.072c0.038-0.152,0.058-0.325,0.058-0.497V86.01z"/>
	<path fill="#009045" d="M206.781,76.837v10.801c0,1.054,0.038,2.164,0.076,2.796h-2.585l-0.134-1.379H204.1
		c-0.594,1.054-1.724,1.59-2.931,1.59c-2.221,0-4.002-1.896-4.002-4.807c-0.019-3.16,1.953-4.979,4.194-4.979
		c1.148,0,2.049,0.402,2.47,1.054h0.038v-5.075H206.781z M203.87,85.033c0-0.153-0.019-0.363-0.038-0.517
		c-0.172-0.785-0.804-1.437-1.704-1.437c-1.321,0-2.011,1.188-2.011,2.662c0,1.589,0.785,2.585,1.991,2.585
		c0.843,0,1.513-0.574,1.686-1.398c0.058-0.21,0.076-0.421,0.076-0.67V85.033z"/>
	<path fill="#009045" d="M211.354,86.681c0.097,1.206,1.283,1.78,2.644,1.78c0.995,0,1.8-0.134,2.585-0.383l0.383,1.973
		c-0.957,0.383-2.126,0.574-3.39,0.574c-3.179,0-4.998-1.838-4.998-4.769c0-2.374,1.475-4.998,4.73-4.998
		c3.025,0,4.174,2.355,4.174,4.673c0,0.498-0.057,0.938-0.096,1.149H211.354z M214.783,84.689c0-0.708-0.307-1.896-1.647-1.896
		c-1.226,0-1.724,1.11-1.8,1.896H214.783z"/>
	<path fill="#009045" d="M233.967,89.84c-0.899,0.307-2.604,0.728-4.309,0.728c-2.355,0-4.06-0.594-5.247-1.742
		c-1.188-1.111-1.838-2.796-1.819-4.691c0.02-4.29,3.141-6.741,7.373-6.741c1.666,0,2.949,0.325,3.581,0.632l-0.613,2.336
		c-0.708-0.306-1.589-0.555-3.006-0.555c-2.433,0-4.271,1.379-4.271,4.175c0,2.661,1.666,4.231,4.06,4.231
		c0.67,0,1.206-0.076,1.437-0.191v-2.7h-1.992v-2.278h4.807V89.84z"/>
	<path fill="#009045" d="M238.501,86.681c0.097,1.206,1.283,1.78,2.644,1.78c0.995,0,1.8-0.134,2.585-0.383l0.383,1.973
		c-0.957,0.383-2.126,0.574-3.39,0.574c-3.179,0-4.998-1.838-4.998-4.769c0-2.374,1.475-4.998,4.73-4.998
		c3.025,0,4.174,2.355,4.174,4.673c0,0.498-0.057,0.938-0.096,1.149H238.501z M241.929,84.689c0-0.708-0.307-1.896-1.647-1.896
		c-1.226,0-1.724,1.11-1.8,1.896H241.929z"/>
	<path fill="#009045" d="M246.369,84.152c0-1.379-0.038-2.278-0.076-3.083h2.509l0.096,1.724h0.076
		c0.479-1.359,1.628-1.935,2.527-1.935c0.269,0,0.402,0,0.613,0.039v2.738c-0.211-0.039-0.46-0.077-0.785-0.077
		c-1.072,0-1.8,0.575-1.991,1.475c-0.039,0.191-0.058,0.422-0.058,0.651v4.749h-2.911V84.152z"/>
	<path fill="#009045" d="M255.73,86.681c0.097,1.206,1.283,1.78,2.644,1.78c0.995,0,1.8-0.134,2.585-0.383l0.383,1.973
		c-0.957,0.383-2.126,0.574-3.39,0.574c-3.179,0-4.998-1.838-4.998-4.769c0-2.374,1.475-4.998,4.73-4.998
		c3.025,0,4.174,2.355,4.174,4.673c0,0.498-0.057,0.938-0.096,1.149H255.73z M259.159,84.689c0-0.708-0.307-1.896-1.647-1.896
		c-1.226,0-1.724,1.11-1.8,1.896H259.159z"/>
	<path fill="#009045" d="M263.598,84.057c0-1.168-0.038-2.164-0.076-2.987h2.527l0.134,1.283h0.058
		c0.383-0.594,1.341-1.494,2.892-1.494c1.915,0,3.352,1.265,3.352,4.021v5.554h-2.911v-5.189c0-1.207-0.421-2.03-1.475-2.03
		c-0.804,0-1.282,0.556-1.475,1.092c-0.076,0.172-0.114,0.46-0.114,0.728v5.4h-2.911V84.057z"/>
	<path fill="#009045" d="M281.845,90.204c-0.518,0.229-1.494,0.421-2.604,0.421c-3.025,0-4.96-1.838-4.96-4.787
		c0-2.738,1.877-4.979,5.362-4.979c0.766,0,1.608,0.135,2.221,0.364l-0.459,2.164c-0.345-0.153-0.862-0.287-1.628-0.287
		c-1.532,0-2.527,1.091-2.509,2.623c0,1.724,1.149,2.624,2.566,2.624c0.689,0,1.226-0.115,1.666-0.288L281.845,90.204z"/>
	<path fill="#009045" d="M286.458,78.465c0,0.805-0.613,1.455-1.57,1.455c-0.919,0-1.532-0.65-1.513-1.455
		c-0.02-0.843,0.594-1.475,1.531-1.475C285.844,76.99,286.438,77.622,286.458,78.465z M283.451,90.434v-9.364h2.911v9.364H283.451z"
		/>
	<path fill="#009045" d="M294.02,90.434l-0.173-0.938h-0.058c-0.612,0.747-1.57,1.149-2.681,1.149c-1.896,0-3.025-1.379-3.025-2.873
		c0-2.432,2.183-3.6,5.496-3.581v-0.134c0-0.498-0.269-1.206-1.705-1.206c-0.957,0-1.972,0.325-2.585,0.708l-0.536-1.876
		c0.651-0.364,1.935-0.824,3.639-0.824c3.121,0,4.117,1.839,4.117,4.041v3.255c0,0.9,0.038,1.763,0.134,2.279H294.02z
		 M293.676,86.01c-1.532-0.019-2.72,0.345-2.72,1.475c0,0.747,0.498,1.11,1.149,1.11c0.728,0,1.321-0.479,1.513-1.072
		c0.038-0.152,0.058-0.325,0.058-0.497V86.01z"/>
	<path fill="#009045" d="M298.804,84.057c0-1.168-0.038-2.164-0.076-2.987h2.451l0.134,1.264h0.058
		c0.402-0.594,1.226-1.475,2.834-1.475c1.206,0,2.164,0.613,2.566,1.59h0.038c0.345-0.479,0.766-0.862,1.206-1.13
		c0.518-0.307,1.092-0.46,1.781-0.46c1.8,0,3.159,1.265,3.159,4.061v5.515h-2.834V85.34c0-1.359-0.44-2.145-1.379-2.145
		c-0.67,0-1.148,0.459-1.34,1.015c-0.077,0.211-0.115,0.517-0.115,0.747v5.477h-2.834v-5.247c0-1.188-0.421-1.991-1.341-1.991
		c-0.746,0-1.187,0.574-1.359,1.053c-0.096,0.229-0.115,0.498-0.115,0.728v5.458h-2.834V84.057z"/>
	<path fill="#009045" d="M317.509,86.681c0.097,1.206,1.283,1.78,2.644,1.78c0.995,0,1.8-0.134,2.585-0.383l0.383,1.973
		c-0.957,0.383-2.126,0.574-3.39,0.574c-3.179,0-4.998-1.838-4.998-4.769c0-2.374,1.475-4.998,4.73-4.998
		c3.025,0,4.174,2.355,4.174,4.673c0,0.498-0.057,0.938-0.096,1.149H317.509z M320.937,84.689c0-0.708-0.307-1.896-1.647-1.896
		c-1.226,0-1.724,1.11-1.8,1.896H320.937z"/>
	<path fill="#009045" d="M325.377,84.057c0-1.168-0.038-2.164-0.076-2.987h2.527l0.134,1.283h0.058
		c0.383-0.594,1.341-1.494,2.892-1.494c1.915,0,3.352,1.265,3.352,4.021v5.554h-2.911v-5.189c0-1.207-0.421-2.03-1.475-2.03
		c-0.804,0-1.282,0.556-1.475,1.092c-0.076,0.172-0.114,0.46-0.114,0.728v5.4h-2.911V84.057z"/>
	<path fill="#009045" d="M339.736,78.389v2.681h2.087v2.145h-2.087v3.39c0,1.13,0.268,1.647,1.148,1.647
		c0.364,0,0.651-0.039,0.862-0.077l0.019,2.202c-0.383,0.153-1.072,0.249-1.896,0.249c-0.938,0-1.724-0.325-2.183-0.804
		c-0.536-0.556-0.805-1.456-0.805-2.777v-3.83h-1.245v-2.145h1.245v-2.03L339.736,78.389z"/>
	<path fill="#009045" d="M352.659,85.647c0,3.428-2.432,4.998-4.94,4.998c-2.738,0-4.845-1.801-4.845-4.826s1.991-4.96,4.998-4.96
		C350.745,80.859,352.659,82.831,352.659,85.647z M345.881,85.742c0,1.608,0.67,2.814,1.915,2.814c1.13,0,1.857-1.13,1.857-2.814
		c0-1.398-0.536-2.815-1.857-2.815C346.397,82.927,345.881,84.363,345.881,85.742z"/>
	<path fill="#009045" d="M203.105,99.811v10.801c0,1.054,0.038,2.164,0.076,2.796h-2.585l-0.134-1.379h-0.038
		c-0.594,1.054-1.724,1.59-2.931,1.59c-2.221,0-4.002-1.896-4.002-4.807c-0.019-3.16,1.953-4.979,4.194-4.979
		c1.148,0,2.049,0.402,2.47,1.054h0.038v-5.075H203.105z M200.194,108.007c0-0.153-0.019-0.363-0.038-0.517
		c-0.172-0.785-0.804-1.437-1.704-1.437c-1.321,0-2.011,1.188-2.011,2.662c0,1.589,0.785,2.585,1.991,2.585
		c0.843,0,1.513-0.574,1.686-1.398c0.058-0.21,0.076-0.421,0.076-0.67V108.007z"/>
	<path fill="#009045" d="M207.678,109.654c0.097,1.206,1.283,1.78,2.644,1.78c0.995,0,1.8-0.134,2.585-0.383l0.383,1.973
		c-0.957,0.383-2.126,0.574-3.39,0.574c-3.179,0-4.998-1.838-4.998-4.769c0-2.374,1.475-4.998,4.73-4.998
		c3.025,0,4.174,2.355,4.174,4.673c0,0.498-0.057,0.938-0.096,1.149H207.678z M211.107,107.662c0-0.708-0.307-1.896-1.647-1.896
		c-1.226,0-1.724,1.11-1.8,1.896H211.107z"/>
	<path fill="#009045" d="M227.188,107.949h-4.75v3.064h5.305v2.394h-8.234V100.5h7.967v2.394h-5.037v2.682h4.75V107.949z"/>
	<path fill="#009045" d="M231.571,104.043l1.264,4.347c0.23,0.785,0.402,1.532,0.536,2.279h0.058
		c0.153-0.767,0.307-1.475,0.518-2.279l1.206-4.347h3.063l-3.484,9.364h-2.911l-3.409-9.364H231.571z"/>
	<path fill="#009045" d="M241.507,109.654c0.097,1.206,1.283,1.78,2.644,1.78c0.995,0,1.8-0.134,2.585-0.383l0.383,1.973
		c-0.957,0.383-2.126,0.574-3.39,0.574c-3.179,0-4.998-1.838-4.998-4.769c0-2.374,1.475-4.998,4.73-4.998
		c3.025,0,4.174,2.355,4.174,4.673c0,0.498-0.057,0.938-0.096,1.149H241.507z M244.935,107.662c0-0.708-0.307-1.896-1.647-1.896
		c-1.226,0-1.724,1.11-1.8,1.896H244.935z"/>
	<path fill="#009045" d="M249.374,107.03c0-1.168-0.038-2.164-0.076-2.987h2.527l0.134,1.283h0.058
		c0.383-0.594,1.341-1.494,2.892-1.494c1.915,0,3.352,1.265,3.352,4.021v5.554h-2.911v-5.189c0-1.207-0.421-2.03-1.475-2.03
		c-0.804,0-1.282,0.556-1.475,1.092c-0.076,0.172-0.114,0.46-0.114,0.728v5.4h-2.911V107.03z"/>
	<path fill="#009045" d="M263.734,101.362v2.681h2.087v2.145h-2.087v3.39c0,1.13,0.268,1.647,1.148,1.647
		c0.364,0,0.651-0.039,0.862-0.077l0.019,2.202c-0.383,0.153-1.072,0.249-1.896,0.249c-0.938,0-1.724-0.325-2.183-0.805
		c-0.536-0.555-0.805-1.455-0.805-2.776v-3.83h-1.245v-2.145h1.245v-2.03L263.734,101.362z"/>
	<path fill="#009045" d="M276.657,108.62c0,3.428-2.432,4.998-4.94,4.998c-2.738,0-4.845-1.801-4.845-4.826s1.991-4.96,4.998-4.96
		C274.743,103.832,276.657,105.805,276.657,108.62z M269.879,108.716c0,1.608,0.67,2.814,1.915,2.814c1.13,0,1.857-1.13,1.857-2.814
		c0-1.398-0.536-2.815-1.857-2.815C270.395,105.901,269.879,107.337,269.879,108.716z"/>
	<path fill="#009045" d="M278.436,110.861c0.536,0.325,1.646,0.709,2.508,0.709c0.881,0,1.245-0.307,1.245-0.785
		c0-0.479-0.287-0.709-1.379-1.073c-1.934-0.65-2.681-1.704-2.662-2.814c0-1.743,1.494-3.064,3.812-3.064
		c1.091,0,2.068,0.249,2.643,0.536l-0.518,2.011c-0.421-0.229-1.226-0.536-2.029-0.536c-0.709,0-1.111,0.287-1.111,0.767
		c0,0.44,0.364,0.67,1.514,1.072c1.78,0.612,2.527,1.513,2.547,2.892c0,1.742-1.379,3.025-4.061,3.025
		c-1.226,0-2.316-0.268-3.025-0.651L278.436,110.861z"/>
</g>
</svg>